<svg width="277.025px" height="125.6px" xmlns="http://www.w3.org/2000/svg" viewBox="111.48750000000001 12.200000000000003 277.025 125.6" style="background: rgba(253, 253, 253, 0);" preserveAspectRatio="xMidYMid"><defs><filter id="editing-extrusion" x="-100%" y="-100%" width="300%" height="300%"><feFlood result="color1" flood-color="#fafafa"></feFlood><feConvolveMatrix order="8,8" divisor="1" kernelMatrix="1 0 0 0 0 0 0 0 0 1 0 0 0 0 0 0 0 0 1 0 0 0 0 0 0 0 0 1 0 0 0 0 0 0 0 0 1 0 0 0 0 0 0 0 0 1 0 0 0 0 0 0 0 0 1 0 0 0 0 0 0 0 0 1" in="SourceAlpha" result="extrude"></feConvolveMatrix><feComposite in="color1" in2="extrude" result="comp-extrude" operator="in"></feComposite><feOffset dx="4" dy="4" in="comp-extrude" result="offset-extrude"></feOffset><feMerge><feMergeNode in="offset-extrude"></feMergeNode><feMergeNode in="SourceGraphic"></feMergeNode></feMerge></filter></defs><g filter="url(#editing-extrusion)"><g transform="translate(155.15000367164612, 97.1400032043457)"><path d="M32.19-39.30L28.29-34.62L28.29-34.62Q26.75-36.29 25.06-37.15L25.06-37.15L25.06-37.15Q23.36-38.02 21.12-38.02L21.12-38.02L21.12-38.02Q18.37-38.02 16.48-36.77L16.48-36.77L16.48-36.77Q14.59-35.52 13.44-33.31L13.44-33.31L13.44-33.31Q12.29-31.10 11.78-28.16L11.78-28.16L11.78-28.16Q11.26-25.22 11.26-21.82L11.26-21.82L11.26-21.82Q11.26-18.43 11.74-15.49L11.74-15.49L11.74-15.49Q12.22-12.54 13.41-10.30L13.41-10.30L13.41-10.30Q14.59-8.06 16.61-6.78L16.61-6.78L16.61-6.78Q18.62-5.50 21.70-5.50L21.70-5.50L21.70-5.50Q23.17-5.50 24.51-5.76L24.51-5.76L24.51-5.76Q25.86-6.02 26.98-6.30L26.98-6.30L26.98-6.30Q28.10-6.59 28.83-6.85L28.83-6.85L28.83-6.85Q29.57-7.10 29.76-7.17L29.76-7.17L31.55-1.79L30.72-1.47L30.72-1.47Q29.89-1.15 28.38-0.74L28.38-0.74L28.38-0.74Q26.88-0.32 24.80 0.03L24.80 0.03L24.80 0.03Q22.72 0.38 20.22 0.38L20.22 0.38L20.22 0.38Q11.65 0.38 7.33-5.09L7.33-5.09L7.33-5.09Q3.01-10.56 3.01-21.12L3.01-21.12L3.01-21.12Q3.01-26.18 4.16-30.37L4.16-30.37L4.16-30.37Q5.31-34.56 7.65-37.57L7.65-37.57L7.65-37.57Q9.98-40.58 13.54-42.24L13.54-42.24L13.54-42.24Q17.09-43.90 21.89-43.90L21.89-43.90L21.89-43.90Q25.73-43.90 28.19-42.50L28.19-42.50L28.19-42.50Q30.66-41.09 32.19-39.30L32.19-39.30ZM50.43-43.90L50.43-43.90L50.43-43.90Q52.67-43.90 54.72-43.49L54.72-43.49L54.72-43.49Q56.77-43.07 58.46-42.53L58.46-42.53L58.46-42.53Q60.16-41.98 61.34-41.41L61.34-41.41L61.34-41.41Q62.53-40.83 62.98-40.51L62.98-40.51L59.84-35.01L59.01-35.46L59.01-35.46Q58.18-35.90 56.83-36.48L56.83-36.48L56.83-36.48Q55.49-37.06 53.89-37.50L53.89-37.50L53.89-37.50Q52.29-37.95 50.82-37.95L50.82-37.95L50.82-37.95Q48.51-37.95 46.82-36.86L46.82-36.86L46.82-36.86Q45.12-35.78 45.12-33.47L45.12-33.47L45.12-33.47Q45.12-30.59 46.98-28.77L46.98-28.77L46.98-28.77Q48.83-26.94 52.80-25.41L52.80-25.41L52.80-25.41Q55.36-24.38 57.38-23.26L57.38-23.26L57.38-23.26Q59.39-22.14 60.80-20.67L60.80-20.67L60.80-20.67Q62.21-19.20 62.94-17.28L62.94-17.28L62.94-17.28Q63.68-15.36 63.68-12.67L63.68-12.67L63.68-12.67Q63.68-10.24 62.75-7.87L62.75-7.87L62.75-7.87Q61.82-5.50 60-3.68L60-3.68L60-3.68Q58.18-1.86 55.49-0.74L55.49-0.74L55.49-0.74Q52.80 0.38 49.28 0.38L49.28 0.38L49.28 0.38Q46.78 0.38 44.54-0.13L44.54-0.13L44.54-0.13Q42.30-0.64 40.48-1.31L40.48-1.31L40.48-1.31Q38.66-1.98 37.34-2.69L37.34-2.69L37.34-2.69Q36.03-3.39 35.39-3.78L35.39-3.78L38.08-9.66L39.23-9.02L39.23-9.02Q40.38-8.38 42.05-7.62L42.05-7.62L42.05-7.62Q43.71-6.85 45.57-6.21L45.57-6.21L45.57-6.21Q47.42-5.57 48.77-5.57L48.77-5.57L48.77-5.57Q52.16-5.57 53.82-7.23L53.82-7.23L53.82-7.23Q55.49-8.90 55.49-11.90L55.49-11.90L55.49-11.90Q55.49-13.31 55.04-14.37L55.04-14.37L55.04-14.37Q54.59-15.42 53.76-16.19L53.76-16.19L53.76-16.19Q52.93-16.96 51.74-17.57L51.74-17.57L51.74-17.57Q50.56-18.18 49.09-18.75L49.09-18.75L49.09-18.75Q46.21-19.97 43.94-21.18L43.94-21.18L43.94-21.18Q41.66-22.40 40.06-23.97L40.06-23.97L40.06-23.97Q38.46-25.54 37.63-27.55L37.63-27.55L37.63-27.55Q36.80-29.57 36.80-32.38L36.80-32.38L36.80-32.38Q36.80-34.75 37.82-36.83L37.82-36.83L37.82-36.83Q38.85-38.91 40.64-40.48L40.64-40.48L40.64-40.48Q42.43-42.05 44.93-42.98L44.93-42.98L44.93-42.98Q47.42-43.90 50.43-43.90ZM82.88-43.90L82.88-43.90L82.88-43.90Q85.12-43.90 87.17-43.49L87.17-43.49L87.17-43.49Q89.22-43.07 90.91-42.53L90.91-42.53L90.91-42.53Q92.61-41.98 93.79-41.41L93.79-41.41L93.79-41.41Q94.98-40.83 95.42-40.51L95.42-40.51L92.29-35.01L91.46-35.46L91.46-35.46Q90.62-35.90 89.28-36.48L89.28-36.48L89.28-36.48Q87.94-37.06 86.34-37.50L86.34-37.50L86.34-37.50Q84.74-37.95 83.26-37.95L83.26-37.95L83.26-37.95Q80.96-37.95 79.26-36.86L79.26-36.86L79.26-36.86Q77.57-35.78 77.57-33.47L77.57-33.47L77.57-33.47Q77.57-30.59 79.42-28.77L79.42-28.77L79.42-28.77Q81.28-26.94 85.25-25.41L85.25-25.41L85.25-25.41Q87.81-24.38 89.82-23.26L89.82-23.26L89.82-23.26Q91.84-22.14 93.25-20.67L93.25-20.67L93.25-20.67Q94.66-19.20 95.39-17.28L95.39-17.28L95.39-17.28Q96.13-15.36 96.13-12.67L96.13-12.67L96.13-12.67Q96.13-10.24 95.20-7.87L95.20-7.87L95.20-7.87Q94.27-5.50 92.45-3.68L92.45-3.68L92.45-3.68Q90.62-1.86 87.94-0.74L87.94-0.74L87.94-0.74Q85.25 0.38 81.73 0.38L81.73 0.38L81.73 0.38Q79.23 0.38 76.99-0.13L76.99-0.13L76.99-0.13Q74.75-0.64 72.93-1.31L72.93-1.31L72.93-1.31Q71.10-1.98 69.79-2.69L69.79-2.69L69.79-2.69Q68.48-3.39 67.84-3.78L67.84-3.78L70.53-9.66L71.68-9.02L71.68-9.02Q72.83-8.38 74.50-7.62L74.50-7.62L74.50-7.62Q76.16-6.85 78.02-6.21L78.02-6.21L78.02-6.21Q79.87-5.57 81.22-5.57L81.22-5.57L81.22-5.57Q84.61-5.57 86.27-7.23L86.27-7.23L86.27-7.23Q87.94-8.90 87.94-11.90L87.94-11.90L87.94-11.90Q87.94-13.31 87.49-14.37L87.49-14.37L87.49-14.37Q87.04-15.42 86.21-16.19L86.21-16.19L86.21-16.19Q85.38-16.96 84.19-17.57L84.19-17.57L84.19-17.57Q83.01-18.18 81.54-18.75L81.54-18.75L81.54-18.75Q78.66-19.97 76.38-21.18L76.38-21.18L76.38-21.18Q74.11-22.40 72.51-23.97L72.51-23.97L72.51-23.97Q70.91-25.54 70.08-27.55L70.08-27.55L70.08-27.55Q69.25-29.57 69.25-32.38L69.25-32.38L69.25-32.38Q69.25-34.75 70.27-36.83L70.27-36.83L70.27-36.83Q71.30-38.91 73.09-40.48L73.09-40.48L73.09-40.48Q74.88-42.05 77.38-42.98L77.38-42.98L77.38-42.98Q79.87-43.90 82.88-43.90ZM125.38-40.77L125.38-36.16L112.51 0L104.64 0L117.06-34.94L99.71-34.94L98.69-40.77L125.38-40.77ZM143.49-41.09L143.49-41.09Q149.12-41.09 152-38.62L152-38.62L152-38.62Q154.88-36.16 154.88-32.19L154.88-32.19L154.88-32.19Q154.88-30.34 154.24-28.90L154.24-28.90L154.24-28.90Q153.60-27.46 152.61-26.40L152.61-26.40L152.61-26.40Q151.62-25.34 150.46-24.64L150.46-24.64L150.46-24.64Q149.31-23.94 148.35-23.49L148.35-23.49L148.35-23.49Q152.38-22.27 154.56-19.23L154.56-19.23L154.56-19.23Q156.74-16.19 156.74-12.67L156.74-12.67L156.74-12.67Q156.74-10.24 156-7.90L156-7.90L156-7.90Q155.26-5.57 153.54-3.71L153.54-3.71L153.54-3.71Q151.81-1.86 148.96-0.74L148.96-0.74L148.96-0.74Q146.11 0.38 141.89 0.38L141.89 0.38L141.89 0.38Q139.01 0.38 135.94-0.61L135.94-0.61L135.94-0.61Q132.86-1.60 129.92-2.94L129.92-2.94L132.10-8.26L132.10-8.26Q134.98-6.98 137.22-6.08L137.22-6.08L137.22-6.08Q139.46-5.18 141.70-5.18L141.70-5.18L141.70-5.18Q143.17-5.18 144.54-5.63L144.54-5.63L144.54-5.63Q145.92-6.08 146.98-6.98L146.98-6.98L146.98-6.98Q148.03-7.87 148.67-9.28L148.67-9.28L148.67-9.28Q149.31-10.69 149.31-12.54L149.31-12.54L149.31-12.54Q149.31-15.49 147.58-17.31L147.58-17.31L147.58-17.31Q145.86-19.14 143.55-19.14L143.55-19.14L143.55-19.14Q142.46-19.14 141.41-19.04L141.41-19.04L141.41-19.04Q140.35-18.94 139.49-18.78L139.49-18.78L139.49-18.78Q138.62-18.62 138.05-18.50L138.05-18.50L138.05-18.50Q137.47-18.37 137.34-18.37L137.34-18.37L135.36-23.36L135.36-23.36Q137.66-24.13 139.81-24.86L139.81-24.86L139.81-24.86Q141.95-25.60 143.62-26.46L143.62-26.46L143.62-26.46Q145.28-27.33 146.27-28.54L146.27-28.54L146.27-28.54Q147.26-29.76 147.26-31.49L147.26-31.49L147.26-31.49Q147.26-33.47 145.98-34.50L145.98-34.50L145.98-34.50Q144.70-35.52 142.46-35.52L142.46-35.52L142.46-35.52Q141.25-35.52 140.22-35.36L140.22-35.36L140.22-35.36Q139.20-35.20 138.14-34.85L138.14-34.85L138.14-34.85Q137.09-34.50 135.90-34.05L135.90-34.05L135.90-34.05Q134.72-33.60 133.25-33.02L133.25-33.02L130.75-37.95L130.75-37.95Q132.35-38.66 133.79-39.23L133.79-39.23L133.79-39.23Q135.23-39.81 136.74-40.22L136.74-40.22L136.74-40.22Q138.24-40.64 139.87-40.86L139.87-40.86L139.87-40.86Q141.50-41.09 143.49-41.09L143.49-41.09ZM186.69-40.77L186.69-36.16L173.82 0L165.95 0L178.37-34.94L161.02-34.94L160-40.77L186.69-40.77Z" fill="#ffffff"></path></g></g><style>text {
  font-size: 64px;
  font-family: Arial Black;
  dominant-baseline: central;
  text-anchor: middle;
}</style></svg>